<svg xmlns:xlink="http://www.w3.org/1999/xlink" xmlns="http://www.w3.org/2000/svg" id="Layer_3" data-name="Layer 3"
     viewBox="0 -300 500 1100">
    <defs>
        <style>.cls-1{
                fill:#FFFFFF;
            }
        </style>
    </defs>
    <path class="cls-1"
          d="M597.15 467.69c-2.7 22.56-7.6 63.52-23.82 104.86-8.88 22.56-34.14 84.48-98.74 130.72-79.4 56.86-164.58 51.6-189.26 49.7-22.32-1.72-70.18-5.84-120.52-36.76-22.16-13.62-63.76-39.18-85.1-91.24-17.78-43.36-12.18-82.46-9.54-99.4C79.71 464.47 114.81 422.27 151.19 378.47c31.06-37.36 43-42.54 77.62-87.82a472.9 472.9 0 0 0 44.26-69.44 422.74 422.74 0 0 0 34.72-91.24c4.72-19.32 11.84-49.38 10.9-89.2a258 258 0 0 0-23.84-106.2 288.4 288.4 0 0 0-25.86-45.62c3.5 31.26 4.1 79.04-17.38 129.02-8.42 19.62-17.42 32.98-28.92 49.36-61.9 88-133.1 173.32-153.88 198.12-28.54 34-48.86 58-69.44 96.68-22 41.3-27.38 67.86-28.6 74.22a227.44 227.44 0 0 0 4 102.82 234.24 234.24 0 0 0 28.6 64c13.74 21.12 27.3 34 26.56 34.72s-28.18-22.18-53.8-54.48c-18-22.62-41.28-52-55.14-98a256.9 256.9 0 0 1-9.54-97.36 266.14 266.14 0 0 1 22.48-83.74c12.28-28.46 26.16-48.28 42.88-72.18A534.74 534.74 0 0 1 14.35 184.47c13.56-15.28 18.34-17.6 35.4-36 15.58-16.86 26.34-30.5 33.58-39.74 13.42-17.12 30.78-39.26 46.76-67.16 33.46-58.38 43.78-112 48.34-136.84a347.54 347.54 0 0 0 6.8-65.36 332.18 332.18 0 0 0-9.52-80.34 316 316 0 0 1 52.42 19.74 320.44 320.44 0 0 1 73.54 49.02A332.56 332.56 0 0 1 402.47-4.13c8.9 37.74 8.54 68 8.16 89.18a420.64 420.64 0 0 1-6.12 64 435.1 435.1 0 0 1-31.32 102.82 475.76 475.76 0 0 1-40.16 71.48c-14.34 21.14-35.2 46-76.94 96-20.72 24.78-26.96 31.8-34.72 46.3S200.47 505.17 200.21 539.19c-.14 16.84-.5 57.22 29.28 84.42 24.4 22.26 55.56 23.42 66.72 23.82 19.24.72 33.46-3.56 48.34-8.16 13.66-4.24 43.76-14.88 78.98-40.86a320.26 320.26 0 0 0 85.8-95.32c32.1-55.62 37.76-106 42.2-145.7 5.76-51.24 1.6-91.88-2.72-134.12a873.56 873.56 0 0 0-15.66-98 820.18 820.18 0 0 1 32 83.06 786.92 786.92 0 0 1 24.52 94.64c4.66 24.82 9.76 52.46 10.88 89.86A505.82 505.82 0 0 1 597.15 467.69Z"/>
</svg>